<mxfile host="app.diagrams.net" agent="Mozilla/5.0 (Windows NT 10.0; Win64; x64) AppleWebKit/537.36 (KHTML, like Gecko) Chrome/130.0.0.0 Safari/537.36" version="24.8.2">
  <diagram id="prtHgNgQTEPvFCAcTncT" name="Page-1">
    <mxGraphModel dx="1674" dy="756" grid="1" gridSize="10" guides="1" tooltips="1" connect="1" arrows="1" fold="1" page="1" pageScale="1" pageWidth="827" pageHeight="1169" math="0" shadow="0">
      <root>
        <mxCell id="0" />
        <mxCell id="1" parent="0" />
        <mxCell id="dNxyNK7c78bLwvsdeMH5-19" value="Cadastro" style="swimlane;html=1;childLayout=stackLayout;resizeParent=1;resizeParentMax=0;horizontal=0;startSize=20;horizontalStack=0;" parent="1" vertex="1">
          <mxGeometry x="90" y="120" width="1030" height="650" as="geometry" />
        </mxCell>
        <mxCell id="dNxyNK7c78bLwvsdeMH5-20" value="Usuário" style="swimlane;html=1;startSize=20;horizontal=0;" parent="dNxyNK7c78bLwvsdeMH5-19" vertex="1">
          <mxGeometry x="20" width="1010" height="380" as="geometry" />
        </mxCell>
        <mxCell id="dNxyNK7c78bLwvsdeMH5-25" value="" style="edgeStyle=orthogonalEdgeStyle;rounded=0;orthogonalLoop=1;jettySize=auto;html=1;" parent="dNxyNK7c78bLwvsdeMH5-20" source="dNxyNK7c78bLwvsdeMH5-23" target="dNxyNK7c78bLwvsdeMH5-24" edge="1">
          <mxGeometry relative="1" as="geometry" />
        </mxCell>
        <mxCell id="dNxyNK7c78bLwvsdeMH5-23" value="" style="ellipse;whiteSpace=wrap;html=1;" parent="dNxyNK7c78bLwvsdeMH5-20" vertex="1">
          <mxGeometry x="60" y="100" width="40" height="40" as="geometry" />
        </mxCell>
        <mxCell id="Xo0hHIZCbLj3JdyE4WEe-12" style="edgeStyle=orthogonalEdgeStyle;rounded=0;orthogonalLoop=1;jettySize=auto;html=1;exitX=1;exitY=0.5;exitDx=0;exitDy=0;entryX=0;entryY=0.5;entryDx=0;entryDy=0;" parent="dNxyNK7c78bLwvsdeMH5-20" source="dNxyNK7c78bLwvsdeMH5-24" target="Xo0hHIZCbLj3JdyE4WEe-1" edge="1">
          <mxGeometry relative="1" as="geometry" />
        </mxCell>
        <mxCell id="dNxyNK7c78bLwvsdeMH5-24" value="Inserir Dados no Formulário" style="rounded=0;whiteSpace=wrap;html=1;fontFamily=Helvetica;fontSize=12;fontColor=#000000;align=center;" parent="dNxyNK7c78bLwvsdeMH5-20" vertex="1">
          <mxGeometry x="160" y="90" width="80" height="60" as="geometry" />
        </mxCell>
        <mxCell id="rEuyw4BH3KxruVMaSUJj-1" value="Usuário Possui Token" style="text;html=1;align=center;verticalAlign=middle;whiteSpace=wrap;rounded=0;" parent="dNxyNK7c78bLwvsdeMH5-20" vertex="1">
          <mxGeometry x="35" y="60" width="90" height="30" as="geometry" />
        </mxCell>
        <mxCell id="Xo0hHIZCbLj3JdyE4WEe-4" value="" style="edgeStyle=orthogonalEdgeStyle;rounded=0;orthogonalLoop=1;jettySize=auto;html=1;" parent="dNxyNK7c78bLwvsdeMH5-20" source="Xo0hHIZCbLj3JdyE4WEe-1" target="Xo0hHIZCbLj3JdyE4WEe-3" edge="1">
          <mxGeometry relative="1" as="geometry" />
        </mxCell>
        <mxCell id="Xo0hHIZCbLj3JdyE4WEe-1" value="Preencher Campo&lt;div&gt;Nome&lt;/div&gt;" style="whiteSpace=wrap;html=1;fontColor=#000000;rounded=0;" parent="dNxyNK7c78bLwvsdeMH5-20" vertex="1">
          <mxGeometry x="280" y="90" width="120" height="60" as="geometry" />
        </mxCell>
        <mxCell id="Xo0hHIZCbLj3JdyE4WEe-6" value="" style="edgeStyle=orthogonalEdgeStyle;rounded=0;orthogonalLoop=1;jettySize=auto;html=1;" parent="dNxyNK7c78bLwvsdeMH5-20" source="Xo0hHIZCbLj3JdyE4WEe-3" target="Xo0hHIZCbLj3JdyE4WEe-5" edge="1">
          <mxGeometry relative="1" as="geometry" />
        </mxCell>
        <mxCell id="Xo0hHIZCbLj3JdyE4WEe-3" value="Preencher Campo&lt;div&gt;Email&lt;/div&gt;" style="whiteSpace=wrap;html=1;fontColor=#000000;rounded=0;" parent="dNxyNK7c78bLwvsdeMH5-20" vertex="1">
          <mxGeometry x="470" y="90" width="120" height="60" as="geometry" />
        </mxCell>
        <mxCell id="Xo0hHIZCbLj3JdyE4WEe-8" value="" style="edgeStyle=orthogonalEdgeStyle;rounded=0;orthogonalLoop=1;jettySize=auto;html=1;" parent="dNxyNK7c78bLwvsdeMH5-20" source="Xo0hHIZCbLj3JdyE4WEe-5" target="Xo0hHIZCbLj3JdyE4WEe-7" edge="1">
          <mxGeometry relative="1" as="geometry" />
        </mxCell>
        <mxCell id="Xo0hHIZCbLj3JdyE4WEe-5" value="Preencher Campo&lt;div&gt;Código de Segurança&lt;/div&gt;" style="whiteSpace=wrap;html=1;fontColor=#000000;rounded=0;" parent="dNxyNK7c78bLwvsdeMH5-20" vertex="1">
          <mxGeometry x="470" y="190" width="120" height="60" as="geometry" />
        </mxCell>
        <mxCell id="Xo0hHIZCbLj3JdyE4WEe-7" value="Preencher Campo&lt;div&gt;Senha&lt;/div&gt;" style="whiteSpace=wrap;html=1;fontColor=#000000;rounded=0;" parent="dNxyNK7c78bLwvsdeMH5-20" vertex="1">
          <mxGeometry x="470" y="280" width="120" height="60" as="geometry" />
        </mxCell>
        <mxCell id="rEuyw4BH3KxruVMaSUJj-26" value="" style="ellipse;whiteSpace=wrap;html=1;" parent="dNxyNK7c78bLwvsdeMH5-20" vertex="1">
          <mxGeometry x="920" y="100" width="40" height="40" as="geometry" />
        </mxCell>
        <mxCell id="rEuyw4BH3KxruVMaSUJj-29" value="Cadastro Realizado com Sucesso" style="text;html=1;align=center;verticalAlign=middle;whiteSpace=wrap;rounded=0;" parent="dNxyNK7c78bLwvsdeMH5-20" vertex="1">
          <mxGeometry x="880" y="60" width="120" height="30" as="geometry" />
        </mxCell>
        <mxCell id="Xo0hHIZCbLj3JdyE4WEe-13" style="edgeStyle=orthogonalEdgeStyle;rounded=0;orthogonalLoop=1;jettySize=auto;html=1;exitX=0;exitY=0.5;exitDx=0;exitDy=0;entryX=0.5;entryY=1;entryDx=0;entryDy=0;" parent="dNxyNK7c78bLwvsdeMH5-19" source="rEuyw4BH3KxruVMaSUJj-2" target="dNxyNK7c78bLwvsdeMH5-24" edge="1">
          <mxGeometry relative="1" as="geometry" />
        </mxCell>
        <mxCell id="Xo0hHIZCbLj3JdyE4WEe-14" style="edgeStyle=orthogonalEdgeStyle;rounded=0;orthogonalLoop=1;jettySize=auto;html=1;exitX=0.5;exitY=1;exitDx=0;exitDy=0;" parent="dNxyNK7c78bLwvsdeMH5-19" source="Xo0hHIZCbLj3JdyE4WEe-7" target="rEuyw4BH3KxruVMaSUJj-2" edge="1">
          <mxGeometry relative="1" as="geometry" />
        </mxCell>
        <mxCell id="dNxyNK7c78bLwvsdeMH5-21" value="Sistema" style="swimlane;html=1;startSize=20;horizontal=0;" parent="dNxyNK7c78bLwvsdeMH5-19" vertex="1">
          <mxGeometry x="20" y="380" width="1010" height="270" as="geometry" />
        </mxCell>
        <mxCell id="rEuyw4BH3KxruVMaSUJj-7" value="Token Inválido" style="text;html=1;align=center;verticalAlign=middle;whiteSpace=wrap;rounded=0;" parent="dNxyNK7c78bLwvsdeMH5-21" vertex="1">
          <mxGeometry x="390" y="60" width="80" height="30" as="geometry" />
        </mxCell>
        <mxCell id="rEuyw4BH3KxruVMaSUJj-6" value="Dados Corretos ?" style="text;html=1;align=center;verticalAlign=middle;whiteSpace=wrap;rounded=0;" parent="dNxyNK7c78bLwvsdeMH5-21" vertex="1">
          <mxGeometry x="530" y="10" width="80" height="30" as="geometry" />
        </mxCell>
        <mxCell id="rEuyw4BH3KxruVMaSUJj-14" value="Token Gerente Válido" style="text;html=1;align=center;verticalAlign=middle;whiteSpace=wrap;rounded=0;" parent="dNxyNK7c78bLwvsdeMH5-21" vertex="1">
          <mxGeometry x="630" y="60" width="120" height="30" as="geometry" />
        </mxCell>
        <mxCell id="rEuyw4BH3KxruVMaSUJj-24" value="Token Analista Válido" style="text;html=1;align=center;verticalAlign=middle;whiteSpace=wrap;rounded=0;" parent="dNxyNK7c78bLwvsdeMH5-21" vertex="1">
          <mxGeometry x="630" y="175" width="120" height="30" as="geometry" />
        </mxCell>
        <mxCell id="rEuyw4BH3KxruVMaSUJj-2" value="" style="rhombus;whiteSpace=wrap;html=1;fontColor=#000000;rounded=0;" parent="dNxyNK7c78bLwvsdeMH5-21" vertex="1">
          <mxGeometry x="490" y="50" width="80" height="80" as="geometry" />
        </mxCell>
        <mxCell id="rEuyw4BH3KxruVMaSUJj-10" value="Inserir dados do Analista no Banco" style="whiteSpace=wrap;html=1;fontColor=#000000;rounded=0;" parent="dNxyNK7c78bLwvsdeMH5-21" vertex="1">
          <mxGeometry x="770" y="175" width="120" height="60" as="geometry" />
        </mxCell>
        <mxCell id="rEuyw4BH3KxruVMaSUJj-8" value="Inserir dados do Gerente no Banco" style="whiteSpace=wrap;html=1;fontColor=#000000;rounded=0;" parent="dNxyNK7c78bLwvsdeMH5-21" vertex="1">
          <mxGeometry x="770" y="60" width="120" height="60" as="geometry" />
        </mxCell>
        <mxCell id="rEuyw4BH3KxruVMaSUJj-13" style="edgeStyle=orthogonalEdgeStyle;rounded=0;orthogonalLoop=1;jettySize=auto;html=1;exitX=0.5;exitY=1;exitDx=0;exitDy=0;entryX=0;entryY=0.5;entryDx=0;entryDy=0;" parent="dNxyNK7c78bLwvsdeMH5-21" source="rEuyw4BH3KxruVMaSUJj-2" target="rEuyw4BH3KxruVMaSUJj-10" edge="1">
          <mxGeometry relative="1" as="geometry" />
        </mxCell>
        <mxCell id="rEuyw4BH3KxruVMaSUJj-9" value="" style="edgeStyle=orthogonalEdgeStyle;rounded=0;orthogonalLoop=1;jettySize=auto;html=1;" parent="dNxyNK7c78bLwvsdeMH5-21" source="rEuyw4BH3KxruVMaSUJj-2" target="rEuyw4BH3KxruVMaSUJj-8" edge="1">
          <mxGeometry relative="1" as="geometry" />
        </mxCell>
        <mxCell id="rEuyw4BH3KxruVMaSUJj-28" style="edgeStyle=orthogonalEdgeStyle;rounded=0;orthogonalLoop=1;jettySize=auto;html=1;exitX=1;exitY=0.5;exitDx=0;exitDy=0;entryX=0.5;entryY=1;entryDx=0;entryDy=0;" parent="dNxyNK7c78bLwvsdeMH5-19" source="rEuyw4BH3KxruVMaSUJj-10" target="rEuyw4BH3KxruVMaSUJj-26" edge="1">
          <mxGeometry relative="1" as="geometry" />
        </mxCell>
        <mxCell id="rEuyw4BH3KxruVMaSUJj-27" style="edgeStyle=orthogonalEdgeStyle;rounded=0;orthogonalLoop=1;jettySize=auto;html=1;exitX=0.5;exitY=0;exitDx=0;exitDy=0;entryX=0;entryY=0.5;entryDx=0;entryDy=0;" parent="dNxyNK7c78bLwvsdeMH5-19" source="rEuyw4BH3KxruVMaSUJj-8" target="rEuyw4BH3KxruVMaSUJj-26" edge="1">
          <mxGeometry relative="1" as="geometry" />
        </mxCell>
      </root>
    </mxGraphModel>
  </diagram>
</mxfile>
